<svg xmlns="http://www.w3.org/2000/svg" width="16" height="16" fill="currentColor" class="metro-ui-css-mif-user-plus" viewBox="0 -64 1024 960">
<g transform="scale(1,-1)">
<path transform="translate(0, -864)" d="M384 224c0 151.234 95.874 280.486 230.032 330.2 16.28 36.538 25.968 77.164 25.968 117.8 0 159.058 0 288-192 288s-192-128.942-192-288c0-99.060 57.502-198.104 128-237.832v-52.78c-217.102-17.748-384-124.42-384-253.388h397.306c-8.664 30.53-13.306 62.732-13.306 96zM736 512c-159.058 0-288-128.942-288-288s128.942-288 288-288c159.056 0 288 128.942 288 288s-128.942 288-288 288zM896 192h-128v-128h-64v128h-128v64h128v128h64v-128h128v-64z" />
</g>
</svg>
